Coordinates
version=1
nRows=10
nColumns=46
inDegrees=yes

Units are S.I. units (second, meters, Newtons, ...)
Angles are in degrees.

endheader
time	pelvis_tilt	pelvis_list	pelvis_rotation	pelvis_tx	pelvis_ty	pelvis_tz	bb_angle	bb_tx	bb_ty	bb_tz	hip_flexion_r	hip_adduction_r	hip_rotation_r	knee_angle_r	knee_angle_r_beta	ankle_angle_r	subtalar_angle_r	mtp_angle_r	crank_angle_r	hip_flexion_l	hip_adduction_l	hip_rotation_l	knee_angle_l	knee_angle_l_beta	ankle_angle_l	subtalar_angle_l	mtp_angle_l	crank_angle_l	lumbar_extension	lumbar_bending	lumbar_rotation	arm_flex_r	arm_add_r	arm_rot_r	elbow_flex_r	pro_sup_r	wrist_flex_r	wrist_dev_r	arm_flex_l	arm_add_l	arm_rot_l	elbow_flex_l	pro_sup_l	wrist_flex_l	wrist_dev_l
      0.00500000	    -16.55536768	     -0.01542543	      4.34916864	      0.20024989	      1.04529460	     -0.24133943	      0.00000000	      0.50000000	      0.00000000	      0.25000000	     48.50367590	     -2.86325900	      5.50352500	     87.63477123	      1.52951530	     27.48248606	     -8.26070736	      0.00000000	      0.00000000	     69.74673406	     -2.30769783	      1.70889896	     66.19113500	      1.15525324	      3.03897308	     -4.85523289	      0.00000000	      0.00000000	    -54.05035874	      0.84134192	     -6.42368968	     82.93751390	    -13.30314974	     33.78897274	     48.50200476	     30.02982376	      0.00000000	      0.00000000	     73.85661326	    -19.28848614	     19.11158748	     68.14631238	     31.80489259	      0.00000000	      0.00000000
      0.01000000	    -16.50250941	      0.03816316	      4.34464923	      0.20021115	      1.04543800	     -0.24127791	      0.00000000	      0.50000000	      0.00000000	      0.25000000	     48.44708675	     -2.88794263	      5.55978535	     87.63070055	      1.52944425	     27.48739874	     -8.24110997	      0.00000000	      0.00000000	     69.66255959	     -2.29432009	      1.65487668	     66.15346826	      1.15459583	      3.02756771	     -4.84993173	      0.00000000	      0.00000000	    -54.13255539	      0.76053821	     -6.36732874	     82.80569915	    -13.33417105	     33.00300608	     48.09345209	     33.63775074	      0.00000000	      0.00000000	     74.13310297	    -19.15932923	     19.20089501	     67.17723086	     35.13238529	      0.00000000	      0.00000000
      0.01500000	    -16.51564890	      0.00140208	      4.34659642	      0.20020201	      1.04538884	     -0.24126086	      0.00000000	      0.50000000	      0.00000000	      0.25000000	     48.45992791	     -2.85473709	      5.53120594	     87.62300253	      1.52930989	     27.48340490	     -8.27783631	      0.00000000	      0.00000000	     69.69147494	     -2.30989512	      1.68923412	     66.16595464	      1.15481376	      3.02001617	     -4.88075425	      0.00000000	      0.00000000	    -54.09850667	      0.82077319	     -6.41373810	     83.02017465	    -13.29116054	     33.46057378	     47.45058708	     35.33691086	      0.00000000	      0.00000000	     74.00140566	    -19.24665389	     18.91696216	     67.03135212	     36.67371219	      0.00000000	      0.00000000
      0.02000000	    -16.55730686	     -0.05210603	      4.32212400	      0.20022315	      1.04522239	     -0.24133832	      0.00000000	      0.50000000	      0.00000000	      0.25000000	     48.48875739	     -2.81389705	      5.52262954	     87.63455732	      1.52951156	     27.55615585	     -8.20905524	      0.00000000	      0.00000000	     69.76619237	     -2.34107503	      1.74179013	     66.22466137	      1.15583839	      3.05173243	     -4.86787504	      0.00000000	      0.00000000	    -54.05920822	      0.83748821	     -6.28022397	     82.91913384	    -13.47231034	     33.05832906	     47.52173512	     37.00930997	      0.00000000	      0.00000000	     74.14520373	    -19.17774402	     19.04560180	     66.56134611	     38.23198445	      0.00000000	      0.00000000
      0.02500000	    -16.59576752	     -0.01669309	      4.34058531	      0.20012670	      1.04532889	     -0.24150756	      0.00000000	      0.50000000	      0.00000000	      0.25000000	     48.52138973	     -2.89141944	      5.53239106	     87.65119762	      1.52980199	     27.64886092	     -8.17179988	      0.00000000	      0.00000000	     69.79433088	     -2.27465070	      1.77801046	     66.22484410	      1.15584158	      3.07801669	     -4.88987013	      0.00000000	      0.00000000	    -54.01983875	      0.89451588	     -6.50094580	     83.23805497	    -13.34651412	     33.79045803	     46.90761591	     37.78448768	      0.00000000	      0.00000000	     73.80070834	    -19.36313243	     18.50351905	     66.94094178	     38.92295712	      0.00000000	      0.00000000
      0.03000000	    -16.82236763	     -0.02904318	      4.29163870	      0.20012838	      1.04493843	     -0.24139613	      0.00000000	      0.50000000	      0.00000000	      0.25000000	     48.80554042	     -2.83374506	      5.57673088	     87.71077824	      1.53084187	     27.57241090	     -8.29111527	      0.00000000	      0.00000000	     70.04528231	     -2.31194597	      1.78200755	     66.24339432	      1.15616534	      3.12400454	     -4.87092755	      0.00000000	      0.00000000	    -53.81937517	      0.82971395	     -6.48557420	     82.61405437	    -13.37800665	     32.65244742	     47.99535646	     38.22387414	      0.00000000	      0.00000000	     73.51060448	    -19.19256799	     17.83415872	     67.50644005	     39.31482516	      0.00000000	      0.00000000
      0.03500000	    -16.59199603	     -0.02591511	      4.33169654	      0.20015295	      1.04542080	     -0.24143609	      0.00000000	      0.50000000	      0.00000000	      0.25000000	     48.51163582	     -2.85066916	      5.53952208	     87.65357478	      1.52984348	     27.61371037	     -8.26306227	      0.00000000	      0.00000000	     69.77757194	     -2.28996961	      1.77948319	     66.19655083	      1.15534777	      3.07014530	     -4.88788176	      0.00000000	      0.00000000	    -54.04079976	      0.93538470	     -6.57581739	     83.48092149	    -13.18037127	     32.98077113	     45.01160236	     48.10178441	      0.00000000	      0.00000000	     73.68558221	    -19.44624823	     17.44058210	     66.03333700	     46.57707407	      0.00000000	      0.00000000
      0.04000000	    -16.62098069	     -0.02089158	      4.32285362	      0.20016262	      1.04542132	     -0.24135573	      0.00000000	      0.50000000	      0.00000000	      0.25000000	     48.53979343	     -2.83480865	      5.56094655	     87.65108884	      1.52980009	     27.63226454	     -8.24366279	      0.00000000	      0.00000000	     69.79747135	     -2.30326815	      1.75862522	     66.17512237	      1.15497377	      3.01958409	     -4.94739804	      0.00000000	      0.00000000	    -54.00735589	      0.86704093	     -6.42227535	     83.15504280	    -13.16030966	     32.11766441	     45.45426732	     47.10477286	      0.00000000	      0.00000000	     73.97169454	    -19.24140315	     17.88863838	     65.57232639	     46.10939988	      0.00000000	      0.00000000
      0.04500000	    -16.59417941	     -0.02442275	      4.32766575	      0.20014983	      1.04543391	     -0.24139871	      0.00000000	      0.50000000	      0.00000000	      0.25000000	     48.51107358	     -2.83990868	      5.54864014	     87.65833985	      1.52992665	     27.63747214	     -8.24675319	      0.00000000	      0.00000000	     69.77867208	     -2.29270298	      1.78347388	     66.18757697	      1.15519114	      3.01457513	     -4.89599733	      0.00000000	      0.00000000	    -54.04898569	      0.93092005	     -6.54527040	     83.43850923	    -13.26222948	     33.10398783	     45.31691459	     46.75857017	      0.00000000	      0.00000000	     73.69178790	    -19.40941884	     17.51673569	     66.13914898	     45.99613179	      0.00000000	      0.00000000
      0.05000000	    -16.59159103	      0.02975587	      4.33970571	      0.20016263	      1.04550404	     -0.24141908	      0.00000000	      0.50000000	      0.00000000	      0.25000000	     48.50568965	     -2.89534327	      5.57722938	     87.66139344	      1.52997994	     27.63474494	     -8.27177424	      0.00000000	      0.00000000	     69.74454909	     -2.23949194	      1.75895009	     66.14675757	      1.15447871	      2.99131183	     -4.95635118	      0.00000000	      0.00000000	    -54.06100924	      0.85902874	     -6.51017352	     83.17249281	    -13.20564957	     32.33874974	     45.65864372	     46.32553014	      0.00000000	      0.00000000	     73.93474843	    -19.34631801	     17.95273263	     65.82630064	     45.79297295	      0.00000000	      0.00000000
